<?xml version="1.0" encoding="UTF-8"?>
<!-- Generated by Pixelmator Pro 3.7 -->
<svg width="1024" height="1024" viewBox="0 0 1024 1024" xmlns="http://www.w3.org/2000/svg">
    <g id="Group">
        <path id="Rectangle" fill="#000000" fill-rule="evenodd" stroke="none" visibility="hidden" d="M -1168.410278 2192.410156 L 2192.4104 2192.410156 L 2192.4104 -1168.4104 L -1168.410278 -1168.4104 Z"/>
        <clipPath id="clipPath1">
            <path clip-rule="evenodd" d="M 0 307 L 1024 307 L 1024 -205 L 0 -205 Z"/>
        </clipPath>
        <path id="Circular-Outline" fill="#ffffff" fill-rule="evenodd" stroke="none" visibility="hidden" clip-path="url(#clipPath1)" d="M 512 819 C 229.230576 819 0 589.769409 0 307 C 0 24.230591 229.230576 -205 512 -205 C 794.769409 -205 1024 24.230591 1024 307 C 1024 589.769409 794.769409 819 512 819 Z M 512 739.620117 C 750.929382 739.620117 944.620117 545.929443 944.620117 307 C 944.620117 68.070618 750.929382 -125.620117 512 -125.620117 C 273.07077 -125.620117 79.37986 68.070618 79.37986 307 C 79.37986 545.929443 273.07077 739.620117 512 739.620117 Z"/>
        <g id="g1">
            <path id="Rounded-Rectangle" fill="#ffffff" fill-rule="evenodd" stroke="none" d="M 0 512 C 0 794.769775 229.230209 1024 512 1024 C 794.769775 1024 1024 794.769775 1024 512 C 1024 229.230225 794.769775 0 512 0 C 229.230209 0 0 229.230225 0 512 Z"/>
            <g id="g2">
                <path id="Pill" fill="#000000" fill-rule="evenodd" stroke="none" d="M 581.215393 652.447449 C 581.215393 690.447754 550.357483 721.253296 512.292297 721.253296 C 474.227142 721.253296 443.369232 690.447754 443.369232 652.447449 L 443.369232 512.685669 C 443.369232 474.685364 474.227142 443.879883 512.292297 443.879883 C 550.357483 443.879883 581.215393 474.685364 581.215393 512.685669 L 581.215393 652.447449 Z"/>
                <path id="Circle" fill="#000000" fill-rule="evenodd" stroke="none" d="M 648.307678 443.333313 C 648.307678 367.203003 586.591858 305.487183 510.461548 305.487183 C 434.331207 305.487183 372.615387 367.203003 372.615387 443.333313 C 372.615387 519.463623 434.331207 581.179443 510.461548 581.179443 C 586.591858 581.179443 648.307678 519.463623 648.307678 443.333313 Z"/>
            </g>
        </g>
    </g>
</svg>
